<svg xmlns="http://www.w3.org/2000/svg" width="146.227" height="115.808" viewBox="0 0 146.227 115.808">
  <defs>
    <style>
      .cls-1 {
        fill: #5a1b1b;
      }

      .cls-2 {
        fill: #070707;
      }

      .cls-3 {
        fill: #33085d;
      }
    </style>
  </defs>
  <g id="Group_3" data-name="Group 3" transform="matrix(0.999, -0.035, 0.035, 0.999, -316.555, -575.226)">
    <path id="Path_5" data-name="Path 5" class="cls-1" d="M36.645,7.847c3.668-9.8,15.533-9.653,19.411.244l36.6,93.415c3.271,8.349-1.783,17.695-9.516,17.6l-71.221-.9c-7.733-.1-12.988-9.573-9.894-17.842Z" transform="translate(418.084 602.48) rotate(94)"/>
    <path id="Path_6" data-name="Path 6" class="cls-2" d="M45.372,5.531c6.06-8,20.106-8.127,25.986-.243l42.482,56.97c6.195,8.308-1.248,19.17-13.211,19.282l-86.268.806C2.4,82.458-4.8,71.732,1.586,63.307Z" transform="translate(308.127 617.803) rotate(3)"/>
    <path id="Path_4" data-name="Path 4" class="cls-3" d="M41.548,5.431c4.638-6.415,12.735-6.3,17.515.241l38.923,53.3c7.092,9.711,1.855,25.144-8.483,25l-76.7-1.055C2.468,82.778-3.106,67.2,3.776,57.678Z" transform="matrix(0.052, -0.999, 0.999, 0.052, 352.859, 699.337)"/>
    <path id="Path_7" data-name="Path 7" class="cls-2" d="M44.632,7.591c5.145-9.717,17.766-9.638,23.019.144l43.125,80.3c5.386,10.029-.98,22.672-11.383,22.607l-85.356-.533C3.634,110.042-2.873,97.318,2.4,87.356Z" transform="matrix(-0.999, -0.052, 0.052, -0.999, 422.523, 702.991)"/>
  </g>
</svg>
